<svg width="32" height="32" viewBox="0 0 32 32" fill="none" xmlns="http://www.w3.org/2000/svg">
<path d="M6 29.6667C5.46667 29.6667 5 29.4667 4.6 29.0667C4.2 28.6667 4 28.2 4 27.6667V7C4 6.46667 4.2 6 4.6 5.6C5 5.2 5.46667 5 6 5H8.16667V3H10.3333V5H21.6667V3H23.8333V5H26C26.5333 5 27 5.2 27.4 5.6C27.8 6 28 6.46667 28 7V27.6667C28 28.2 27.8 28.6667 27.4 29.0667C27 29.4667 26.5333 29.6667 26 29.6667H6ZM6 27.6667H26V13.3333H6V27.6667ZM6 11.3333H26V7H6V11.3333ZM16 19C15.6222 19 15.3056 18.8722 15.05 18.6167C14.7944 18.3611 14.6667 18.0444 14.6667 17.6667C14.6667 17.2889 14.7944 16.9722 15.05 16.7167C15.3056 16.4611 15.6222 16.3333 16 16.3333C16.3778 16.3333 16.6944 16.4611 16.95 16.7167C17.2056 16.9722 17.3333 17.2889 17.3333 17.6667C17.3333 18.0444 17.2056 18.3611 16.95 18.6167C16.6944 18.8722 16.3778 19 16 19ZM10.6667 19C10.2889 19 9.97222 18.8722 9.71667 18.6167C9.46111 18.3611 9.33333 18.0444 9.33333 17.6667C9.33333 17.2889 9.46111 16.9722 9.71667 16.7167C9.97222 16.4611 10.2889 16.3333 10.6667 16.3333C11.0444 16.3333 11.3611 16.4611 11.6167 16.7167C11.8722 16.9722 12 17.2889 12 17.6667C12 18.0444 11.8722 18.3611 11.6167 18.6167C11.3611 18.8722 11.0444 19 10.6667 19ZM21.3333 19C20.9556 19 20.6389 18.8722 20.3833 18.6167C20.1278 18.3611 20 18.0444 20 17.6667C20 17.2889 20.1278 16.9722 20.3833 16.7167C20.6389 16.4611 20.9556 16.3333 21.3333 16.3333C21.7111 16.3333 22.0278 16.4611 22.2833 16.7167C22.5389 16.9722 22.6667 17.2889 22.6667 17.6667C22.6667 18.0444 22.5389 18.3611 22.2833 18.6167C22.0278 18.8722 21.7111 19 21.3333 19ZM16 24.3333C15.6222 24.3333 15.3056 24.2056 15.05 23.95C14.7944 23.6944 14.6667 23.3778 14.6667 23C14.6667 22.6222 14.7944 22.3056 15.05 22.05C15.3056 21.7944 15.6222 21.6667 16 21.6667C16.3778 21.6667 16.6944 21.7944 16.95 22.05C17.2056 22.3056 17.3333 22.6222 17.3333 23C17.3333 23.3778 17.2056 23.6944 16.95 23.95C16.6944 24.2056 16.3778 24.3333 16 24.3333ZM10.6667 24.3333C10.2889 24.3333 9.97222 24.2056 9.71667 23.95C9.46111 23.6944 9.33333 23.3778 9.33333 23C9.33333 22.6222 9.46111 22.3056 9.71667 22.05C9.97222 21.7944 10.2889 21.6667 10.6667 21.6667C11.0444 21.6667 11.3611 21.7944 11.6167 22.05C11.8722 22.3056 12 22.6222 12 23C12 23.3778 11.8722 23.6944 11.6167 23.95C11.3611 24.2056 11.0444 24.3333 10.6667 24.3333ZM21.3333 24.3333C20.9556 24.3333 20.6389 24.2056 20.3833 23.95C20.1278 23.6944 20 23.3778 20 23C20 22.6222 20.1278 22.3056 20.3833 22.05C20.6389 21.7944 20.9556 21.6667 21.3333 21.6667C21.7111 21.6667 22.0278 21.7944 22.2833 22.05C22.5389 22.3056 22.6667 22.6222 22.6667 23C22.6667 23.3778 22.5389 23.6944 22.2833 23.95C22.0278 24.2056 21.7111 24.3333 21.3333 24.3333Z" fill="#696969"/>
</svg>
