<svg width="48" height="48" viewBox="0 0 48 48" fill="none" xmlns="http://www.w3.org/2000/svg">
<path d="M15.8 41H32.2V34.65C32.2 32.3167 31.4083 30.3083 29.825 28.625C28.2417 26.9417 26.3 26.1 24 26.1C21.7 26.1 19.7583 26.9417 18.175 28.625C16.5917 30.3083 15.8 32.3167 15.8 34.65V41ZM24 21.9C26.3 21.9 28.2417 21.0583 29.825 19.375C31.4083 17.6917 32.2 15.6667 32.2 13.3V7H15.8V13.3C15.8 15.6667 16.5917 17.6917 18.175 19.375C19.7583 21.0583 21.7 21.9 24 21.9ZM8 44V41H12.8V34.65C12.8 32.3167 13.4083 30.175 14.625 28.225C15.8417 26.275 17.5333 24.8667 19.7 24C17.5333 23.1333 15.8417 21.7167 14.625 19.75C13.4083 17.7833 12.8 15.6333 12.8 13.3V7H8V4H40V7H35.2V13.3C35.2 15.6333 34.5917 17.7833 33.375 19.75C32.1583 21.7167 30.4667 23.1333 28.3 24C30.4667 24.8667 32.1583 26.275 33.375 28.225C34.5917 30.175 35.2 32.3167 35.2 34.65V41H40V44H8Z" fill="url(#paint0_linear_91_36)"/>
<defs>
<linearGradient id="paint0_linear_91_36" x1="24" y1="4" x2="24" y2="44" gradientUnits="userSpaceOnUse">
<stop stop-color="#FAD901"/>
<stop offset="1" stop-color="#B29C00"/>
</linearGradient>
</defs>
</svg>
