<svg width="32" height="32" viewBox="0 0 32 32" fill="none" xmlns="http://www.w3.org/2000/svg">
<path d="M15.6667 21.6667C17.2444 21.6667 18.5833 21.1167 19.6833 20.0167C20.7833 18.9167 21.3333 17.5778 21.3333 16C21.3333 14.4222 20.7833 13.0833 19.6833 11.9833C18.5833 10.8833 17.2444 10.3333 15.6667 10.3333C14.0889 10.3333 12.75 10.8833 11.65 11.9833C10.55 13.0833 10 14.4222 10 16C10 17.5778 10.55 18.9167 11.65 20.0167C12.75 21.1167 14.0889 21.6667 15.6667 21.6667ZM15.6667 19.7333C14.6222 19.7333 13.7389 19.3722 13.0167 18.65C12.2944 17.9278 11.9333 17.0444 11.9333 16C11.9333 14.9556 12.2944 14.0722 13.0167 13.35C13.7389 12.6278 14.6222 12.2667 15.6667 12.2667C16.7111 12.2667 17.5944 12.6278 18.3167 13.35C19.0389 14.0722 19.4 14.9556 19.4 16C19.4 17.0444 19.0389 17.9278 18.3167 18.65C17.5944 19.3722 16.7111 19.7333 15.6667 19.7333ZM15.6667 26C12.4222 26 9.48889 25.0778 6.86667 23.2333C4.24444 21.3889 2.28889 18.9778 1 16C2.28889 13.0222 4.24444 10.6111 6.86667 8.76667C9.48889 6.92222 12.4222 6 15.6667 6C18.9111 6 21.8444 6.92222 24.4667 8.76667C27.0889 10.6111 29.0444 13.0222 30.3333 16C29.0444 18.9778 27.0889 21.3889 24.4667 23.2333C21.8444 25.0778 18.9111 26 15.6667 26ZM15.6667 24C18.3556 24 20.8278 23.2722 23.0833 21.8167C25.3389 20.3611 27.0556 18.4222 28.2333 16C27.0556 13.5778 25.3389 11.6389 23.0833 10.1833C20.8278 8.72778 18.3556 8 15.6667 8C12.9778 8 10.5056 8.72778 8.25 10.1833C5.99444 11.6389 4.26667 13.5778 3.06667 16C4.26667 18.4222 5.99444 20.3611 8.25 21.8167C10.5056 23.2722 12.9778 24 15.6667 24Z" fill="#696969"/>
</svg>
