<svg width="32" height="32" viewBox="0 0 32 32" fill="none" xmlns="http://www.w3.org/2000/svg">
<path d="M20.9667 18.0333L19.5 16.5667C20.0778 14.9889 19.7778 13.6778 18.6 12.6333C17.4223 11.5889 16.1445 11.3222 14.7667 11.8333L13.3 10.3667C13.6778 10.1222 14.1 9.94443 14.5667 9.83332C15.0334 9.72221 15.5112 9.66666 16 9.66666C17.5778 9.66666 18.9167 10.2167 20.0167 11.3167C21.1167 12.4167 21.6667 13.7555 21.6667 15.3333C21.6667 15.8222 21.6056 16.3055 21.4834 16.7833C21.3612 17.2611 21.1889 17.6778 20.9667 18.0333ZM25.2667 22.3333L23.9334 21C25.0223 20.2 25.9723 19.3055 26.7834 18.3167C27.5945 17.3278 28.1889 16.3333 28.5667 15.3333C27.4556 12.8667 25.7889 10.9167 23.5667 9.48332C21.3445 8.04999 18.9334 7.33332 16.3334 7.33332C15.4 7.33332 14.4445 7.42221 13.4667 7.59999C12.4889 7.77777 11.7223 7.98888 11.1667 8.23332L9.63337 6.66666C10.4112 6.3111 11.4056 5.99999 12.6167 5.73332C13.8278 5.46666 15.0112 5.33332 16.1667 5.33332C19.3445 5.33332 22.25 6.23888 24.8834 8.04999C27.5167 9.8611 29.4445 12.2889 30.6667 15.3333C30.0889 16.7555 29.3445 18.0555 28.4334 19.2333C27.5223 20.4111 26.4667 21.4444 25.2667 22.3333ZM27.2 29.8667L21.6 24.3667C20.8223 24.6778 19.9445 24.9167 18.9667 25.0833C17.9889 25.25 17 25.3333 16 25.3333C12.7556 25.3333 9.81115 24.4278 7.16671 22.6167C4.52226 20.8055 2.57782 18.3778 1.33337 15.3333C1.77782 14.1778 2.39449 13.05 3.18337 11.95C3.97226 10.85 4.93337 9.79999 6.06671 8.79999L1.86671 4.59999L3.26671 3.16666L28.5 28.4L27.2 29.8667ZM7.43337 10.2C6.61115 10.8 5.81671 11.5889 5.05004 12.5667C4.28337 13.5444 3.73337 14.4667 3.40004 15.3333C4.53337 17.8 6.23893 19.75 8.51671 21.1833C10.7945 22.6167 13.3778 23.3333 16.2667 23.3333C17 23.3333 17.7223 23.2889 18.4334 23.2C19.1445 23.1111 19.6778 22.9778 20.0334 22.8L17.9 20.6667C17.6556 20.7778 17.3556 20.8611 17 20.9167C16.6445 20.9722 16.3112 21 16 21C14.4445 21 13.1112 20.4555 12 19.3667C10.8889 18.2778 10.3334 16.9333 10.3334 15.3333C10.3334 15 10.3612 14.6667 10.4167 14.3333C10.4723 14 10.5556 13.7 10.6667 13.4333L7.43337 10.2Z" fill="#696969"/>
</svg>
